<svg xmlns="http://www.w3.org/2000/svg" xmlns:xlink="http://www.w3.org/1999/xlink" width="500" zoomAndPan="magnify" viewBox="0 0 375 374.999991" height="500" preserveAspectRatio="xMidYMid meet" version="1.0"><defs><g/><clipPath id="fad0cde0c9"><path d="M 171.242188 104 L 300.828125 104 L 300.828125 309.453125 L 171.242188 309.453125 Z M 171.242188 104 " clip-rule="nonzero"/></clipPath></defs><rect x="-37.5" width="450" fill="#ffffff" y="-37.499999" height="449.999989" fill-opacity="1"/><rect x="-37.5" width="450" fill="#ffffff" y="-37.499999" height="449.999989" fill-opacity="1"/><rect x="-37.5" width="450" fill="#ffe5d8" y="-37.499999" height="449.999989" fill-opacity="1"/><g clip-path="url(#fad0cde0c9)"><path fill="#231f20" d="M 226.492188 126.589844 C 226.824219 126.78125 227.148438 126.980469 227.46875 127.183594 C 225.898438 126.476562 224.082031 125.53125 222.105469 124.46875 C 223.652344 125.09375 225.128906 125.800781 226.492188 126.589844 Z M 229.851562 128.890625 C 231.386719 130.128906 232.726562 131.53125 233.890625 133.117188 C 235.839844 135.777344 237.285156 138.964844 238.273438 142.804688 C 239.238281 146.546875 239.773438 150.90625 239.933594 155.425781 C 240.105469 160.246094 239.847656 165.25 239.230469 169.863281 C 238.644531 174.234375 237.734375 178.257812 236.585938 181.835938 C 235.386719 185.570312 233.925781 188.816406 232.296875 191.460938 C 230.835938 193.839844 229.234375 195.730469 227.824219 197.398438 C 226.132812 199.402344 224.707031 201.085938 224.078125 202.929688 C 223.503906 204.605469 223.601562 206.378906 224.191406 208.019531 C 224.816406 209.75 225.988281 211.332031 227.492188 212.496094 C 228.503906 213.273438 229.660156 213.859375 230.75 214.292969 C 232.785156 215.101562 234.617188 215.382812 234.785156 215.382812 C 235.042969 215.382812 235.171875 215.253906 235.171875 215.003906 C 235.171875 214.710938 235 214.667969 234.699219 214.585938 C 234 214.394531 231.5 213.722656 230.515625 212.304688 C 230.292969 211.984375 230.148438 211.625 230.070312 211.246094 C 229.9375 210.605469 229.996094 209.921875 230.207031 209.3125 C 230.414062 208.71875 230.765625 208.203125 231.222656 207.882812 C 231.425781 207.742188 231.652344 207.640625 231.890625 207.589844 C 233.472656 207.261719 235.945312 209.019531 238.777344 211.042969 C 239.117188 211.285156 239.457031 211.527344 239.707031 211.703125 C 241.359375 212.871094 243.121094 214.0625 244.9375 214.996094 C 246.773438 215.941406 248.667969 216.621094 250.570312 216.742188 C 251.269531 216.789062 251.964844 216.761719 252.648438 216.675781 C 253.335938 217.6875 254.097656 218.6875 254.875 219.703125 C 256.644531 222.015625 258.476562 224.40625 259.476562 227.09375 C 260.214844 229.078125 260.507812 231.242188 260.386719 233.28125 C 260.261719 235.328125 259.71875 237.242188 258.785156 238.71875 C 257.875 240.160156 256.59375 241.183594 255.175781 241.734375 C 253.742188 242.289062 252.171875 242.351562 250.714844 241.851562 C 249.671875 241.496094 248.667969 240.84375 247.652344 240.183594 C 245.722656 238.925781 243.765625 237.652344 241.292969 238.148438 C 239.285156 238.550781 237.015625 240.136719 234.742188 241.722656 C 232.828125 243.0625 230.910156 244.402344 229.207031 244.980469 C 227.851562 245.441406 226.621094 245.425781 225.636719 245.230469 C 225.101562 244.972656 224.65625 244.75 224.300781 244.574219 C 223.730469 244.289062 223.382812 244.113281 223.207031 244.085938 C 223.070312 244.0625 222.953125 244.09375 222.859375 244.171875 C 222.628906 244.367188 222.664062 244.648438 222.996094 244.921875 C 223.125 245.023438 223.320312 245.152344 223.566406 245.289062 C 224.003906 245.523438 224.632812 245.78125 225.398438 245.941406 C 227.300781 246.847656 230.28125 248.144531 234.277344 249.304688 C 237.890625 250.355469 242.328125 251.292969 247.257812 252 C 248.363281 252.15625 249.492188 252.300781 250.640625 252.433594 C 250.347656 252.511719 250.054688 252.589844 249.757812 252.664062 C 248.890625 252.886719 248.019531 253.109375 247.207031 253.375 C 244.675781 252.261719 241.632812 251.464844 238.726562 250.75 C 235.777344 250.023438 232.96875 249.378906 230.804688 249.246094 C 228.476562 249.101562 226.851562 249.554688 226.476562 251.105469 C 226.113281 252.59375 227.074219 255.121094 228.949219 257.789062 C 230.632812 260.183594 233.0625 262.71875 235.933594 264.738281 C 238.894531 266.816406 242.324219 268.34375 246.117188 269.351562 C 247.179688 269.632812 248.269531 269.871094 249.382812 270.070312 C 249.25 270.386719 249.109375 270.703125 248.972656 271.019531 C 248.421875 272.277344 247.863281 273.554688 247.359375 274.804688 C 246.066406 277.996094 245.011719 281.214844 244.535156 284.34375 C 244.054688 287.5 244.160156 290.570312 245.1875 293.441406 C 246.214844 296.320312 248.164062 298.988281 250.867188 301.28125 C 252.363281 302.554688 254.09375 303.710938 256.023438 304.726562 C 256.105469 304.792969 256.179688 304.855469 256.25 304.914062 C 255.160156 304.582031 252.539062 303.363281 249.5 301.367188 C 247.117188 299.796875 244.527344 297.726562 242.289062 295.15625 C 237.792969 290.003906 234.683594 282.835938 231.375 275.207031 C 230.277344 272.675781 229.15625 270.09375 227.980469 267.566406 C 225.566406 262.378906 222.832031 257.214844 219.980469 252.132812 C 217.15625 247.101562 214.171875 242.082031 211.265625 237.203125 L 210.835938 236.476562 C 205.226562 227.050781 199.933594 218.160156 195.386719 209.695312 C 193.0625 205.371094 190.9375 201.167969 189.007812 196.667969 C 187.078125 192.167969 185.339844 187.367188 183.777344 181.847656 C 182.21875 176.332031 180.839844 170.097656 179.757812 163.851562 C 178.675781 157.585938 177.890625 151.308594 177.53125 145.738281 C 177.222656 140.960938 177.222656 136.707031 177.222656 132.945312 C 177.222656 130.722656 177.222656 128.667969 177.160156 126.777344 C 177.308594 127.140625 177.464844 127.484375 177.628906 127.800781 C 178.519531 129.539062 179.574219 130.542969 180.90625 130.964844 C 182.21875 131.382812 183.773438 131.21875 185.695312 130.632812 C 186.773438 130.308594 187.957031 129.847656 189.242188 129.335938 C 189.839844 130.273438 190.570312 131.238281 191.496094 132.21875 C 192.996094 133.808594 195.019531 135.417969 197.269531 136.738281 C 199.296875 137.925781 201.519531 138.886719 203.722656 139.386719 C 205.953125 139.894531 208.164062 139.9375 210.230469 139.628906 C 211.875 139.382812 213.429688 138.914062 214.832031 138.285156 C 215.332031 138.316406 215.824219 138.34375 216.308594 138.375 C 217.414062 138.4375 218.472656 138.5 219.417969 138.59375 C 222.167969 138.855469 224.144531 139.367188 225.535156 139.726562 C 226.257812 139.914062 226.828125 140.0625 227.273438 140.117188 C 228.1875 140.230469 228.703125 140.015625 228.6875 139.246094 C 228.675781 138.722656 228.273438 137.875 227.386719 136.566406 C 226.390625 135.097656 224.757812 132.988281 222.589844 130.992188 C 221.035156 129.5625 219.207031 128.1875 217.136719 127.136719 C 214.71875 125.90625 211.980469 125.125 209.144531 124.761719 C 208.984375 124.734375 208.824219 124.714844 208.667969 124.691406 C 207.59375 124.542969 206.609375 124.488281 205.722656 124.53125 C 203.816406 124.511719 201.902344 124.675781 200.046875 125.015625 C 196.296875 125.699219 192.808594 127.101562 189.804688 128.308594 L 189.546875 128.410156 C 188.882812 127.304688 188.386719 126.246094 187.933594 125.28125 C 187.683594 124.742188 187.441406 124.230469 187.203125 123.769531 C 186.863281 123.113281 186.507812 122.523438 186.183594 122.023438 C 187.0625 122.4375 188.269531 122.789062 189.839844 122.789062 C 191.273438 122.789062 193.003906 122.492188 195.019531 122.148438 C 197.910156 121.652344 201.402344 121.054688 205.40625 121.101562 C 208.902344 121.144531 212.804688 121.675781 216.597656 122.660156 C 216.996094 122.765625 217.394531 122.875 217.789062 122.988281 C 218.484375 123.359375 219.167969 123.730469 219.835938 124.09375 C 223.839844 126.257812 227.34375 128.15625 229.851562 128.890625 Z M 234.492188 132.671875 C 233.5625 131.402344 232.515625 130.246094 231.355469 129.191406 C 231.425781 129.199219 231.492188 129.203125 231.558594 129.207031 C 232.136719 129.230469 232.625 129.136719 233.03125 128.949219 C 233.746094 128.613281 234.179688 128 234.375 127.203125 C 234.554688 126.464844 234.523438 125.566406 234.308594 124.609375 C 233.960938 123.035156 233.121094 121.273438 231.949219 119.777344 C 230.464844 117.882812 228.457031 116.40625 225.6875 115.058594 C 222.953125 113.726562 219.464844 112.515625 214.988281 111.144531 C 209.996094 109.617188 203.769531 107.886719 197.765625 106.53125 C 193.023438 105.464844 188.414062 104.628906 184.652344 104.308594 C 180.601562 103.964844 177.511719 104.21875 175.335938 104.863281 C 172.773438 105.621094 171.4375 106.9375 171.25 108.488281 C 171.078125 109.910156 171.882812 111.441406 172.898438 113.371094 C 173.765625 115.019531 174.792969 116.96875 175.464844 119.359375 C 175.5 119.886719 175.558594 120.421875 175.632812 120.957031 C 175.777344 122.015625 175.992188 123.078125 176.261719 124.089844 C 176.476562 126.664062 176.476562 129.613281 176.476562 132.945312 C 176.476562 136.730469 176.476562 141.007812 176.785156 145.785156 C 177.148438 151.386719 177.933594 157.691406 179.023438 163.976562 C 180.105469 170.25 181.492188 176.507812 183.058594 182.050781 C 184.628906 187.601562 186.378906 192.433594 188.320312 196.960938 C 190.261719 201.488281 192.394531 205.707031 194.726562 210.046875 C 199.257812 218.480469 204.566406 227.402344 210.191406 236.855469 L 210.625 237.582031 C 213.5 242.410156 216.457031 247.382812 219.328125 252.5 C 222.175781 257.570312 224.898438 262.714844 227.300781 267.878906 C 228.503906 270.464844 229.609375 273.007812 230.6875 275.5 C 234.023438 283.1875 237.15625 290.410156 241.726562 295.648438 C 244.015625 298.273438 246.65625 300.390625 249.089844 301.988281 C 253.222656 304.707031 256.890625 305.863281 257.253906 305.558594 C 257.3125 305.507812 257.359375 305.457031 257.386719 305.402344 C 258.503906 305.925781 259.679688 306.402344 260.90625 306.828125 C 264.964844 308.234375 269.613281 309.09375 273.941406 309.269531 C 278.097656 309.4375 281.972656 308.980469 284.769531 307.78125 C 285.921875 307.289062 286.890625 306.671875 287.667969 305.953125 C 288.785156 304.914062 289.5 303.660156 289.757812 302.261719 C 290.019531 300.875 289.828125 299.351562 289.144531 297.757812 C 288.570312 296.417969 287.644531 295.023438 286.34375 293.625 C 283.53125 290.597656 278.933594 287.507812 273.988281 285.316406 C 269.503906 283.332031 264.71875 282.078125 260.691406 282.273438 C 259.695312 282.320312 258.75 282.457031 257.855469 282.664062 C 254.757812 283.394531 252.269531 285.027344 250.578125 287.054688 C 248.878906 289.097656 247.992188 291.542969 248.105469 293.886719 C 248.128906 294.375 248.195312 294.855469 248.304688 295.328125 C 248.835938 297.585938 250.386719 299.613281 252.019531 301.261719 C 251.789062 301.082031 251.566406 300.898438 251.347656 300.710938 C 248.75 298.503906 246.875 295.945312 245.890625 293.191406 C 244.910156 290.445312 244.8125 287.5 245.277344 284.457031 C 245.742188 281.390625 246.777344 278.230469 248.054688 275.082031 C 248.574219 273.796875 249.121094 272.546875 249.65625 271.316406 C 249.820312 270.941406 249.984375 270.570312 250.144531 270.199219 C 252.90625 270.644531 255.824219 270.851562 258.863281 270.824219 C 263.476562 270.78125 268.359375 270.207031 273 269.121094 C 277.394531 268.09375 281.582031 266.605469 285.125 264.679688 C 288.183594 263.015625 290.757812 261.023438 292.769531 259.113281 C 295.578125 256.453125 297.304688 253.933594 297.738281 252.679688 C 298.023438 251.859375 297.855469 251.421875 297.300781 251.230469 C 296.699219 251.023438 295.59375 251.300781 294.066406 251.683594 C 293.011719 251.949219 291.75 252.265625 290.339844 252.507812 C 289.0625 252.730469 287.664062 252.890625 286.238281 253.050781 C 282.433594 253.484375 278.445312 253.9375 275.988281 255.617188 C 274.421875 256.6875 273.519531 258.210938 272.570312 259.804688 C 271.488281 261.632812 270.339844 263.5625 268.0625 264.914062 C 265.894531 266.195312 262.6875 266.988281 259.351562 267.152344 C 256.738281 267.277344 254.058594 267.019531 251.738281 266.308594 C 252.882812 263.214844 253.507812 260.414062 252.710938 258.207031 C 252.039062 256.34375 250.378906 254.949219 248.210938 253.847656 C 248.773438 253.6875 249.359375 253.535156 249.941406 253.386719 C 250.851562 253.152344 251.753906 252.921875 252.582031 252.644531 C 255.582031 252.945312 258.707031 253.15625 261.902344 253.25 C 266.742188 253.398438 271.726562 253.28125 276.402344 253.011719 C 282.074219 252.683594 287.292969 252.136719 291.257812 251.5625 C 295.542969 250.945312 298.378906 250.292969 299.679688 249.792969 C 300.039062 249.65625 300.296875 249.523438 300.449219 249.398438 C 300.789062 249.128906 300.828125 248.855469 300.566406 248.585938 C 300.457031 248.476562 300.28125 248.394531 300.03125 248.339844 C 299.53125 248.234375 298.617188 248.210938 297.386719 248.179688 C 294.671875 248.109375 290.386719 248.003906 285.917969 246.898438 C 282.5 246.054688 278.960938 244.625 275.648438 243.289062 C 272.6875 242.09375 269.90625 240.972656 267.539062 240.398438 C 265.101562 239.808594 263.101562 239.804688 261.53125 240.238281 C 259.757812 240.726562 258.527344 241.765625 257.808594 243.160156 C 257.332031 244.082031 257.089844 245.140625 256.847656 246.210938 C 256.433594 248.050781 256.007812 249.933594 254.324219 251.042969 C 253.820312 251.375 253.191406 251.644531 252.5 251.882812 C 250.738281 251.707031 249.023438 251.496094 247.363281 251.257812 C 242.460938 250.558594 238.058594 249.625 234.488281 248.589844 C 231.628906 247.757812 229.300781 246.859375 227.515625 246.085938 C 228.125 246.042969 228.773438 245.917969 229.445312 245.691406 C 231.246094 245.078125 233.210938 243.707031 235.171875 242.335938 C 237.375 240.792969 239.578125 239.253906 241.4375 238.882812 C 243.617188 238.449219 245.441406 239.636719 247.246094 240.808594 C 248.300781 241.496094 249.34375 242.175781 250.476562 242.5625 C 252.097656 243.117188 253.847656 243.046875 255.445312 242.429688 C 257.007812 241.824219 258.417969 240.699219 259.417969 239.117188 C 260.421875 237.53125 261 235.492188 261.132812 233.324219 C 261.261719 231.1875 260.953125 228.917969 260.175781 226.832031 C 259.132812 224.039062 257.269531 221.601562 255.46875 219.25 C 254.773438 218.339844 254.089844 217.441406 253.46875 216.550781 C 255.589844 216.160156 257.609375 215.308594 259.339844 214.578125 C 259.828125 214.371094 260.292969 214.175781 260.765625 213.992188 C 261.773438 213.59375 262.628906 213.328125 263.230469 213.164062 C 263.472656 213.121094 263.679688 213.078125 263.835938 213.046875 C 264.03125 213.003906 264.15625 212.972656 264.214844 212.949219 L 264.25 212.9375 C 265.007812 212.828125 265.441406 212.601562 265.574219 212.398438 C 265.839844 212.242188 265.824219 212.148438 265.535156 212.121094 C 265.347656 211.984375 264.855469 211.960938 264.082031 212.207031 L 264.03125 212.214844 C 263.972656 212.21875 263.863281 212.238281 263.71875 212.269531 C 263.554688 212.304688 263.332031 212.359375 263.0625 212.433594 C 262.230469 212.578125 260.980469 212.738281 259.953125 212.679688 C 259.230469 212.640625 258.636719 212.5 258.46875 212.183594 C 258.453125 212.152344 258.441406 212.121094 258.429688 212.082031 C 258.335938 211.695312 258.605469 211.085938 259.140625 210.421875 C 259.722656 209.703125 260.601562 208.960938 261.679688 208.386719 C 262.316406 208.050781 263.015625 207.769531 263.765625 207.585938 C 265.300781 207.210938 267.046875 207.242188 268.703125 207.496094 C 270.824219 207.820312 272.789062 208.5 274.015625 209.15625 C 274.628906 209.488281 275.042969 209.800781 275.300781 210.101562 C 275.476562 210.3125 275.566406 210.503906 275.589844 210.683594 C 275.613281 210.855469 275.570312 211.019531 275.484375 211.183594 C 275.378906 211.378906 275.210938 211.570312 274.992188 211.753906 C 274.648438 212.046875 274.183594 212.316406 273.785156 212.554688 C 273.21875 212.886719 272.757812 213.160156 272.683594 213.492188 C 272.613281 213.824219 272.789062 214.058594 273.3125 214.167969 C 274.027344 214.324219 275.910156 214.324219 278.148438 213.640625 C 279.597656 213.195312 281.203125 212.460938 282.761719 211.292969 C 284.820312 209.75 286.785156 207.449219 288.179688 204.894531 C 289.453125 202.550781 290.253906 199.992188 290.214844 197.589844 C 290.171875 194.976562 289.140625 192.5625 287.351562 190.808594 C 285.660156 189.144531 283.296875 188.074219 280.460938 187.996094 C 277.925781 187.921875 275.019531 188.644531 272.203125 189.738281 C 268.660156 191.117188 265.246094 193.089844 262.894531 194.808594 C 259.75 197.101562 258.492188 198.949219 257.289062 200.710938 C 256.875 201.3125 256.472656 201.90625 256 202.496094 C 255.015625 203.738281 253.730469 205.003906 252.242188 205.984375 C 251.820312 206.261719 251.382812 206.515625 250.933594 206.742188 C 251.070312 206.238281 251.257812 205.730469 251.496094 205.210938 C 252.3125 203.441406 253.730469 201.554688 255.023438 199.839844 C 256.660156 197.664062 258.101562 195.753906 257.949219 194.503906 C 257.800781 193.261719 256.273438 192.792969 254.105469 192.738281 C 252.105469 192.6875 249.519531 192.96875 247.015625 193.292969 C 244.515625 193.617188 242.089844 193.980469 240.09375 194.527344 C 238.039062 195.089844 236.425781 195.855469 235.605469 196.972656 C 234.800781 198.074219 234.773438 199.472656 235.273438 200.902344 C 235.808594 202.425781 236.953125 203.992188 238.390625 205.257812 C 239.777344 206.476562 241.445312 207.417969 243.191406 207.972656 C 244.882812 208.507812 246.65625 208.679688 248.332031 208.394531 C 248.875 208.300781 249.40625 208.160156 249.925781 207.980469 C 249.808594 208.953125 249.847656 209.898438 250.015625 210.828125 C 250.339844 212.601562 251.128906 214.300781 252.1875 215.972656 C 251.667969 216.019531 251.140625 216.03125 250.617188 215.996094 C 248.832031 215.882812 247.03125 215.234375 245.277344 214.332031 C 243.503906 213.421875 241.769531 212.246094 240.136719 211.089844 C 239.757812 210.824219 239.480469 210.625 239.210938 210.433594 C 236.234375 208.3125 233.640625 206.460938 231.738281 206.859375 C 231.394531 206.929688 231.078125 207.070312 230.792969 207.269531 C 230.207031 207.675781 229.757812 208.328125 229.5 209.070312 C 229.246094 209.800781 229.175781 210.625 229.335938 211.398438 C 229.4375 211.875 229.621094 212.328125 229.902344 212.734375 C 230.058594 212.957031 230.246094 213.167969 230.453125 213.359375 C 229.597656 212.980469 228.726562 212.5 227.949219 211.902344 C 226.554688 210.828125 225.46875 209.363281 224.894531 207.765625 C 224.363281 206.28125 224.269531 204.679688 224.785156 203.171875 C 225.371094 201.460938 226.753906 199.824219 228.398438 197.878906 C 229.824219 196.191406 231.449219 194.269531 232.9375 191.855469 C 234.589844 189.164062 236.078125 185.863281 237.296875 182.0625 C 238.460938 178.445312 239.378906 174.375 239.96875 169.960938 C 240.59375 165.304688 240.851562 160.261719 240.679688 155.398438 C 240.519531 150.828125 239.976562 146.417969 239 142.621094 C 237.980469 138.679688 236.496094 135.410156 234.492188 132.671875 Z M 230.210938 128.21875 C 229.179688 127.390625 228.066406 126.636719 226.867188 125.941406 C 224.246094 124.425781 221.21875 123.203125 218.074219 122.292969 C 215.773438 121.058594 213.339844 119.785156 210.863281 118.625 C 206.738281 116.695312 202.527344 115.105469 198.582031 113.871094 C 194.117188 112.46875 189.980469 111.523438 186.679688 111.050781 C 183.539062 110.601562 181.140625 110.585938 179.378906 111.125 C 177.542969 111.683594 176.398438 112.828125 175.835938 114.683594 C 175.628906 115.367188 175.503906 116.148438 175.449219 116.988281 C 174.855469 115.484375 174.167969 114.179688 173.558594 113.023438 C 172.605469 111.210938 171.847656 109.769531 171.992188 108.578125 C 172.144531 107.328125 173.304688 106.242188 175.546875 105.578125 C 177.636719 104.960938 180.636719 104.71875 184.589844 105.054688 C 188.324219 105.371094 192.898438 106.199219 197.601562 107.261719 C 203.59375 108.613281 209.796875 110.335938 214.773438 111.859375 C 219.203125 113.214844 222.65625 114.414062 225.359375 115.730469 C 228.027344 117.03125 229.953125 118.441406 231.359375 120.234375 C 232.464844 121.648438 233.253906 123.300781 233.582031 124.769531 C 233.769531 125.617188 233.800781 126.398438 233.648438 127.027344 C 233.507812 127.601562 233.203125 128.042969 232.714844 128.273438 C 232.417969 128.410156 232.042969 128.480469 231.589844 128.460938 C 231.1875 128.441406 230.722656 128.359375 230.210938 128.21875 Z M 259.050781 213.890625 C 257.269531 214.640625 255.175781 215.527344 253.011719 215.871094 L 252.996094 215.847656 C 251.894531 214.160156 251.074219 212.457031 250.75 210.699219 C 250.570312 209.710938 250.550781 208.703125 250.726562 207.664062 C 251.398438 207.371094 252.042969 207.011719 252.65625 206.605469 C 254.214844 205.578125 255.558594 204.257812 256.585938 202.964844 C 257.074219 202.351562 257.484375 201.746094 257.90625 201.132812 C 259.074219 199.421875 260.296875 197.628906 263.335938 195.410156 C 265.644531 193.722656 268.996094 191.789062 272.472656 190.4375 C 275.207031 189.375 278.015625 188.671875 280.441406 188.742188 C 283.074219 188.816406 285.265625 189.804688 286.828125 191.339844 C 288.476562 192.957031 289.429688 195.1875 289.46875 197.601562 C 289.503906 199.867188 288.742188 202.300781 287.523438 204.535156 C 286.179688 207 284.289062 209.214844 282.3125 210.695312 C 280.835938 211.804688 279.304688 212.503906 277.929688 212.925781 C 276.042969 213.503906 274.460938 213.566406 273.695312 213.472656 C 273.820312 213.398438 273.984375 213.300781 274.160156 213.195312 C 274.589844 212.945312 275.085938 212.652344 275.476562 212.324219 C 275.761719 212.082031 275.992188 211.820312 276.144531 211.535156 C 276.300781 211.238281 276.375 210.921875 276.332031 210.589844 C 276.289062 210.269531 276.144531 209.945312 275.871094 209.621094 C 275.558594 209.25 275.070312 208.875 274.367188 208.5 C 273.078125 207.808594 271.019531 207.09375 268.816406 206.757812 C 267.074219 206.488281 265.234375 206.460938 263.589844 206.859375 C 262.777344 207.058594 262.015625 207.363281 261.328125 207.730469 C 260.15625 208.355469 259.195312 209.164062 258.558594 209.949219 C 257.878906 210.792969 257.554688 211.636719 257.707031 212.257812 C 257.730469 212.355469 257.765625 212.449219 257.808594 212.535156 C 258.128906 213.128906 258.945312 213.371094 259.910156 213.429688 C 259.984375 213.433594 260.058594 213.433594 260.136719 213.4375 C 259.800781 213.574219 259.433594 213.730469 259.050781 213.890625 Z M 273.417969 213.648438 L 273.417969 213.644531 C 273.410156 213.683594 273.40625 213.695312 273.417969 213.648438 Z M 250.066406 207.128906 C 249.464844 207.367188 248.839844 207.546875 248.203125 207.65625 C 246.652344 207.921875 245 207.757812 243.417969 207.257812 C 241.765625 206.734375 240.191406 205.847656 238.882812 204.695312 C 237.535156 203.515625 236.472656 202.058594 235.980469 200.65625 C 235.558594 199.453125 235.566406 198.292969 236.210938 197.414062 C 236.914062 196.449219 238.390625 195.769531 240.289062 195.246094 C 242.246094 194.710938 244.636719 194.351562 247.109375 194.035156 C 249.582031 193.714844 252.136719 193.4375 254.085938 193.484375 C 255.871094 193.53125 257.113281 193.824219 257.207031 194.589844 C 257.320312 195.546875 255.96875 197.34375 254.425781 199.394531 C 253.109375 201.136719 251.664062 203.058594 250.816406 204.902344 C 250.46875 205.660156 250.222656 206.402344 250.066406 207.128906 Z M 261.921875 252.503906 C 259.253906 252.425781 256.628906 252.265625 254.085938 252.035156 C 254.316406 251.921875 254.53125 251.796875 254.734375 251.664062 C 256.671875 250.390625 257.132812 248.359375 257.578125 246.375 C 257.808594 245.351562 258.039062 244.339844 258.472656 243.5 C 259.097656 242.292969 260.175781 241.386719 261.730469 240.957031 C 263.183594 240.554688 265.054688 240.566406 267.363281 241.125 C 269.675781 241.683594 272.429688 242.796875 275.371094 243.984375 C 278.703125 245.328125 282.273438 246.769531 285.738281 247.625 C 290.28125 248.746094 294.621094 248.855469 297.371094 248.925781 C 298.335938 248.953125 299.101562 248.972656 299.589844 249.027344 C 299.535156 249.050781 299.476562 249.074219 299.414062 249.097656 C 298.160156 249.578125 295.382812 250.210938 291.152344 250.824219 C 287.203125 251.394531 282.003906 251.941406 276.363281 252.265625 C 271.699219 252.53125 266.734375 252.648438 261.921875 252.503906 Z M 246.171875 253.75 C 245.046875 254.207031 244.105469 254.792969 243.542969 255.640625 C 243.535156 255.648438 243.53125 255.65625 243.523438 255.667969 C 243.414062 255.835938 243.320312 256.015625 243.238281 256.199219 C 242.695312 257.476562 242.875 259.125 243.679688 260.773438 C 244.460938 262.378906 245.847656 263.996094 247.734375 265.257812 C 248.417969 265.710938 249.160156 266.117188 249.96875 266.460938 C 250.226562 266.570312 250.492188 266.675781 250.761719 266.773438 C 250.433594 267.617188 250.070312 268.484375 249.691406 269.367188 C 248.53125 269.164062 247.402344 268.917969 246.308594 268.628906 C 242.597656 267.644531 239.25 266.152344 236.363281 264.125 C 233.566406 262.160156 231.199219 259.6875 229.5625 257.359375 C 227.804688 254.859375 226.890625 252.5625 227.203125 251.28125 C 227.46875 250.183594 228.8125 249.871094 230.757812 249.992188 C 232.863281 250.121094 235.636719 250.757812 238.546875 251.476562 C 241.144531 252.117188 243.851562 252.820312 246.171875 253.75 Z M 244.164062 256.054688 C 244.738281 255.195312 245.847656 254.625 247.164062 254.175781 C 249.519531 255.25 251.34375 256.609375 252.007812 258.460938 C 252.730469 260.464844 252.128906 263.113281 251.027344 266.074219 C 250.765625 265.980469 250.511719 265.878906 250.261719 265.773438 C 249.496094 265.449219 248.792969 265.0625 248.152344 264.636719 C 246.378906 263.453125 245.082031 261.941406 244.351562 260.445312 C 243.640625 258.992188 243.472656 257.5625 243.929688 256.492188 C 243.992188 256.347656 244.0625 256.207031 244.148438 256.078125 C 244.15625 256.070312 244.160156 256.0625 244.164062 256.054688 Z M 251.472656 267.007812 C 253.890625 267.753906 256.679688 268.027344 259.386719 267.898438 C 262.839844 267.730469 266.171875 266.902344 268.441406 265.554688 C 270.886719 264.109375 272.082031 262.09375 273.214844 260.1875 C 274.117188 258.664062 274.980469 257.210938 276.410156 256.234375 C 278.714844 254.660156 282.605469 254.21875 286.320312 253.792969 C 287.761719 253.632812 289.175781 253.46875 290.464844 253.246094 C 291.902344 253 293.183594 252.675781 294.25 252.410156 C 295.652344 252.058594 296.667969 251.800781 297.058594 251.9375 C 297.144531 251.964844 297.144531 252.117188 297.035156 252.4375 C 296.628906 253.605469 294.972656 255.996094 292.257812 258.574219 C 290.285156 260.441406 287.761719 262.394531 284.769531 264.023438 C 281.289062 265.917969 277.167969 267.378906 272.832031 268.394531 C 268.238281 269.46875 263.410156 270.035156 258.859375 270.078125 C 255.929688 270.101562 253.117188 269.910156 250.449219 269.492188 C 250.808594 268.648438 251.15625 267.820312 251.472656 267.007812 Z M 261.148438 306.125 C 259.472656 305.542969 257.898438 304.863281 256.441406 304.101562 C 256.285156 303.976562 256.117188 303.839844 255.933594 303.695312 C 253.84375 302.019531 249.90625 298.871094 249.035156 295.15625 C 248.933594 294.726562 248.871094 294.289062 248.851562 293.851562 C 248.746094 291.695312 249.574219 289.429688 251.152344 287.53125 C 252.742188 285.621094 255.09375 284.085938 258.027344 283.394531 C 258.878906 283.195312 259.78125 283.0625 260.726562 283.019531 C 264.628906 282.832031 269.296875 284.058594 273.6875 286.003906 C 278.546875 288.15625 283.046875 291.179688 285.796875 294.132812 C 287.039062 295.46875 287.917969 296.789062 288.457031 298.050781 C 289.082031 299.503906 289.257812 300.882812 289.023438 302.128906 C 288.792969 303.363281 288.15625 304.476562 287.15625 305.402344 C 286.445312 306.066406 285.546875 306.636719 284.480469 307.09375 C 281.785156 308.25 278.023438 308.6875 273.972656 308.523438 C 269.710938 308.347656 265.136719 307.507812 261.148438 306.125 Z M 177 123.96875 C 176.890625 122.664062 176.726562 121.453125 176.480469 120.328125 C 176.398438 119.949219 176.304688 119.582031 176.207031 119.222656 C 176.101562 117.609375 176.195312 116.085938 176.554688 114.898438 C 177.035156 113.304688 178.019531 112.320312 179.59375 111.839844 C 181.242188 111.335938 183.539062 111.359375 186.578125 111.792969 C 189.835938 112.257812 193.933594 113.195312 198.359375 114.582031 C 202.285156 115.8125 206.460938 117.390625 210.546875 119.300781 C 212.042969 120 213.53125 120.75 214.992188 121.507812 C 211.71875 120.78125 208.421875 120.390625 205.414062 120.355469 C 201.332031 120.308594 197.8125 120.910156 194.894531 121.410156 C 192.914062 121.75 191.21875 122.039062 189.839844 122.039062 C 186.65625 122.039062 185.144531 120.488281 184.910156 120.25 L 184.910156 120.246094 C 184.902344 120.238281 184.894531 120.230469 184.886719 120.222656 C 184.699219 120.039062 184.53125 120.027344 184.34375 120.210938 L 184.34375 120.214844 C 184.109375 120.449219 184.207031 120.570312 184.386719 120.800781 C 184.652344 121.132812 185.644531 122.386719 186.539062 124.109375 C 186.785156 124.585938 187.015625 125.078125 187.257812 125.597656 C 187.707031 126.554688 188.195312 127.597656 188.84375 128.691406 C 187.617188 129.179688 186.484375 129.613281 185.476562 129.921875 C 183.703125 130.460938 182.289062 130.617188 181.132812 130.25 C 180 129.890625 179.085938 129.007812 178.292969 127.460938 C 177.800781 126.496094 177.355469 125.285156 177 123.96875 Z M 189.949219 129.054688 L 190.082031 129 C 193.054688 127.808594 196.507812 126.421875 200.179688 125.75 C 200.90625 125.617188 201.640625 125.511719 202.378906 125.433594 C 201.585938 125.945312 201.046875 126.664062 200.792969 127.613281 C 200.425781 128.996094 200.695312 130.859375 201.628906 132.59375 C 202.421875 134.066406 203.699219 135.457031 205.476562 136.386719 C 207.578125 137.480469 210.351562 137.914062 213.128906 138.15625 C 212.175781 138.484375 211.167969 138.734375 210.121094 138.890625 C 208.140625 139.183594 206.019531 139.144531 203.886719 138.660156 C 201.761719 138.171875 199.613281 137.246094 197.648438 136.09375 C 195.453125 134.808594 193.492188 133.246094 192.035156 131.707031 C 191.1875 130.808594 190.511719 129.921875 189.949219 129.054688 Z M 205.710938 125.277344 C 206.796875 125.289062 207.882812 125.359375 208.953125 125.492188 L 209.097656 125.511719 C 211.148438 125.84375 213.476562 126.492188 215.464844 127.359375 C 217.289062 128.15625 218.816406 129.121094 219.550781 130.167969 C 219.601562 130.242188 219.648438 130.320312 219.695312 130.394531 C 220.238281 131.324219 220.171875 132.335938 219.679688 133.320312 C 219.160156 134.359375 218.179688 135.371094 216.929688 136.246094 C 216.625 136.457031 216.308594 136.660156 215.976562 136.855469 C 215.566406 137.09375 215.140625 137.316406 214.695312 137.523438 C 211.515625 137.3125 208.175781 136.953125 205.824219 135.722656 C 204.191406 134.871094 203.015625 133.59375 202.289062 132.238281 C 201.445312 130.671875 201.195312 129.015625 201.515625 127.804688 C 201.796875 126.753906 202.53125 126.042969 203.644531 125.652344 C 204.230469 125.441406 204.925781 125.320312 205.710938 125.277344 Z M 220.386719 130.105469 C 220.984375 130.570312 221.550781 131.050781 222.082031 131.542969 C 224.207031 133.496094 225.796875 135.550781 226.769531 136.984375 C 227.570312 138.164062 227.929688 138.882812 227.941406 139.261719 C 227.941406 139.394531 227.734375 139.417969 227.367188 139.375 C 226.953125 139.324219 226.410156 139.183594 225.722656 139.003906 C 224.308594 138.636719 222.296875 138.121094 219.488281 137.847656 C 218.507812 137.753906 217.453125 137.691406 216.351562 137.625 L 216.152344 137.617188 C 216.21875 137.578125 216.285156 137.539062 216.351562 137.5 C 216.699219 137.296875 217.035156 137.082031 217.355469 136.855469 C 218.707031 135.914062 219.777344 134.804688 220.351562 133.652344 C 220.941406 132.472656 221.023438 131.253906 220.386719 130.105469 " fill-opacity="1" fill-rule="nonzero"/></g><g fill="#000000" fill-opacity="1"><g transform="translate(170.490294, 286.62294)"><g><path d="M 9.296875 -0.15625 C 9.328125 -0.15625 9.34375 -0.128906 9.34375 -0.078125 C 9.34375 -0.0234375 9.328125 0 9.296875 0 C 9.128906 0 8.867188 -0.0078125 8.515625 -0.03125 C 8.160156 -0.0390625 7.898438 -0.046875 7.734375 -0.046875 C 7.523438 -0.046875 7.269531 -0.0390625 6.96875 -0.03125 C 6.6875 -0.0078125 6.46875 0 6.3125 0 C 6.28125 0 6.265625 -0.0234375 6.265625 -0.078125 C 6.265625 -0.128906 6.28125 -0.15625 6.3125 -0.15625 C 6.632812 -0.15625 6.863281 -0.179688 7 -0.234375 C 7.132812 -0.296875 7.203125 -0.40625 7.203125 -0.5625 C 7.203125 -0.6875 7.140625 -0.882812 7.015625 -1.15625 L 5.875 -3.53125 L 2.71875 -3.53125 L 1.9375 -1.71875 C 1.820312 -1.457031 1.765625 -1.21875 1.765625 -1 C 1.765625 -0.4375 2.191406 -0.15625 3.046875 -0.15625 C 3.085938 -0.15625 3.109375 -0.128906 3.109375 -0.078125 C 3.109375 -0.0234375 3.085938 0 3.046875 0 C 2.890625 0 2.660156 -0.0078125 2.359375 -0.03125 C 2.023438 -0.0390625 1.734375 -0.046875 1.484375 -0.046875 C 1.265625 -0.046875 0.992188 -0.0390625 0.671875 -0.03125 C 0.410156 -0.0078125 0.1875 0 0 0 C -0.0390625 0 -0.0625 -0.0234375 -0.0625 -0.078125 C -0.0625 -0.128906 -0.0390625 -0.15625 0 -0.15625 C 0.25 -0.15625 0.457031 -0.203125 0.625 -0.296875 C 0.800781 -0.390625 0.96875 -0.554688 1.125 -0.796875 C 1.28125 -1.035156 1.457031 -1.382812 1.65625 -1.84375 L 4.453125 -8.375 C 4.460938 -8.40625 4.492188 -8.421875 4.546875 -8.421875 C 4.597656 -8.421875 4.628906 -8.40625 4.640625 -8.375 L 7.796875 -1.8125 C 8.097656 -1.164062 8.351562 -0.726562 8.5625 -0.5 C 8.769531 -0.269531 9.015625 -0.15625 9.296875 -0.15625 Z M 2.828125 -3.8125 L 5.75 -3.8125 L 4.203125 -7.015625 Z M 2.828125 -3.8125 "/></g></g></g><g fill="#000000" fill-opacity="1"><g transform="translate(190.395124, 286.62294)"><g><path d="M 2.515625 -1.125 C 2.515625 -0.875 2.535156 -0.691406 2.578125 -0.578125 C 2.628906 -0.460938 2.722656 -0.382812 2.859375 -0.34375 C 3.003906 -0.3125 3.222656 -0.296875 3.515625 -0.296875 L 4.796875 -0.296875 C 5.316406 -0.296875 5.75 -0.453125 6.09375 -0.765625 C 6.4375 -1.085938 6.660156 -1.53125 6.765625 -2.09375 C 6.765625 -2.113281 6.785156 -2.125 6.828125 -2.125 C 6.878906 -2.125 6.90625 -2.109375 6.90625 -2.078125 C 6.832031 -1.328125 6.796875 -0.703125 6.796875 -0.203125 C 6.796875 -0.128906 6.78125 -0.078125 6.75 -0.046875 C 6.71875 -0.015625 6.664062 0 6.59375 0 L 0.453125 0 C 0.429688 0 0.421875 -0.0234375 0.421875 -0.078125 C 0.421875 -0.128906 0.429688 -0.15625 0.453125 -0.15625 C 0.773438 -0.15625 1.007812 -0.175781 1.15625 -0.21875 C 1.3125 -0.269531 1.414062 -0.359375 1.46875 -0.484375 C 1.519531 -0.609375 1.546875 -0.804688 1.546875 -1.078125 L 1.546875 -7.203125 C 1.546875 -7.460938 1.519531 -7.65625 1.46875 -7.78125 C 1.414062 -7.90625 1.3125 -7.988281 1.15625 -8.03125 C 1.007812 -8.082031 0.773438 -8.109375 0.453125 -8.109375 C 0.429688 -8.109375 0.421875 -8.132812 0.421875 -8.1875 C 0.421875 -8.238281 0.429688 -8.265625 0.453125 -8.265625 L 1.109375 -8.265625 C 1.484375 -8.242188 1.789062 -8.234375 2.03125 -8.234375 C 2.28125 -8.234375 2.59375 -8.242188 2.96875 -8.265625 L 3.609375 -8.265625 C 3.628906 -8.265625 3.640625 -8.238281 3.640625 -8.1875 C 3.640625 -8.132812 3.628906 -8.109375 3.609375 -8.109375 C 3.296875 -8.109375 3.0625 -8.082031 2.90625 -8.03125 C 2.75 -7.988281 2.644531 -7.898438 2.59375 -7.765625 C 2.539062 -7.640625 2.515625 -7.445312 2.515625 -7.1875 Z M 2.515625 -1.125 "/></g></g></g><g fill="#000000" fill-opacity="1"><g transform="translate(208.064009, 286.62294)"><g><path d="M 4.453125 -4.65625 C 5.160156 -4.59375 5.726562 -4.351562 6.15625 -3.9375 C 6.582031 -3.53125 6.796875 -3.03125 6.796875 -2.4375 C 6.796875 -1.96875 6.675781 -1.539062 6.4375 -1.15625 C 6.207031 -0.78125 5.882812 -0.484375 5.46875 -0.265625 C 5.0625 -0.0546875 4.601562 0.046875 4.09375 0.046875 C 3.8125 0.046875 3.5 0.0351562 3.15625 0.015625 C 3.039062 0.00390625 2.894531 -0.00390625 2.71875 -0.015625 C 2.550781 -0.0234375 2.363281 -0.03125 2.15625 -0.03125 L 1.25 -0.015625 C 1.082031 -0.00390625 0.851562 0 0.5625 0 C 0.550781 0 0.546875 -0.0234375 0.546875 -0.078125 C 0.546875 -0.128906 0.550781 -0.15625 0.5625 -0.15625 C 0.882812 -0.15625 1.125 -0.175781 1.28125 -0.21875 C 1.4375 -0.269531 1.539062 -0.359375 1.59375 -0.484375 C 1.65625 -0.609375 1.6875 -0.804688 1.6875 -1.078125 L 1.6875 -7.203125 C 1.6875 -7.460938 1.65625 -7.65625 1.59375 -7.78125 C 1.539062 -7.90625 1.441406 -7.988281 1.296875 -8.03125 C 1.148438 -8.082031 0.914062 -8.109375 0.59375 -8.109375 C 0.570312 -8.109375 0.5625 -8.132812 0.5625 -8.1875 C 0.5625 -8.238281 0.570312 -8.265625 0.59375 -8.265625 L 1.25 -8.265625 C 1.613281 -8.242188 1.914062 -8.234375 2.15625 -8.234375 C 2.3125 -8.234375 2.457031 -8.238281 2.59375 -8.25 C 2.738281 -8.257812 2.859375 -8.265625 2.953125 -8.265625 C 3.222656 -8.296875 3.484375 -8.3125 3.734375 -8.3125 C 4.492188 -8.3125 5.0625 -8.148438 5.4375 -7.828125 C 5.820312 -7.515625 6.015625 -7.09375 6.015625 -6.5625 C 6.015625 -6.132812 5.875 -5.753906 5.59375 -5.421875 C 5.320312 -5.097656 4.941406 -4.84375 4.453125 -4.65625 Z M 3.46875 -8.09375 C 3.25 -8.09375 3.082031 -8.070312 2.96875 -8.03125 C 2.863281 -8 2.78125 -7.914062 2.71875 -7.78125 C 2.664062 -7.644531 2.640625 -7.441406 2.640625 -7.171875 L 2.640625 -4.65625 L 3.25 -4.640625 C 3.851562 -4.640625 4.300781 -4.804688 4.59375 -5.140625 C 4.894531 -5.484375 5.046875 -5.925781 5.046875 -6.46875 C 5.046875 -6.96875 4.914062 -7.363281 4.65625 -7.65625 C 4.40625 -7.945312 4.007812 -8.09375 3.46875 -8.09375 Z M 3.890625 -0.203125 C 4.523438 -0.203125 4.992188 -0.363281 5.296875 -0.6875 C 5.609375 -1.019531 5.765625 -1.492188 5.765625 -2.109375 C 5.765625 -2.773438 5.570312 -3.3125 5.1875 -3.71875 C 4.8125 -4.132812 4.28125 -4.347656 3.59375 -4.359375 C 3.351562 -4.367188 3.035156 -4.359375 2.640625 -4.328125 L 2.640625 -1.078125 C 2.640625 -0.847656 2.671875 -0.671875 2.734375 -0.546875 C 2.804688 -0.429688 2.929688 -0.34375 3.109375 -0.28125 C 3.285156 -0.226562 3.546875 -0.203125 3.890625 -0.203125 Z M 3.890625 -0.203125 "/></g></g></g><g fill="#000000" fill-opacity="1"><g transform="translate(226.129805, 286.62294)"><g><path d="M 2.703125 -1.078125 C 2.703125 -0.796875 2.726562 -0.59375 2.78125 -0.46875 C 2.832031 -0.351562 2.929688 -0.269531 3.078125 -0.21875 C 3.234375 -0.175781 3.472656 -0.15625 3.796875 -0.15625 C 3.816406 -0.15625 3.828125 -0.128906 3.828125 -0.078125 C 3.828125 -0.0234375 3.816406 0 3.796875 0 C 3.523438 0 3.3125 -0.00390625 3.15625 -0.015625 L 2.203125 -0.03125 L 1.28125 -0.015625 C 1.113281 -0.00390625 0.890625 0 0.609375 0 C 0.578125 0 0.5625 -0.0234375 0.5625 -0.078125 C 0.5625 -0.128906 0.578125 -0.15625 0.609375 -0.15625 C 0.929688 -0.15625 1.164062 -0.175781 1.3125 -0.21875 C 1.46875 -0.269531 1.570312 -0.359375 1.625 -0.484375 C 1.6875 -0.609375 1.71875 -0.804688 1.71875 -1.078125 L 1.71875 -7.203125 C 1.71875 -7.460938 1.6875 -7.65625 1.625 -7.78125 C 1.570312 -7.90625 1.46875 -7.988281 1.3125 -8.03125 C 1.164062 -8.082031 0.929688 -8.109375 0.609375 -8.109375 C 0.578125 -8.109375 0.5625 -8.132812 0.5625 -8.1875 C 0.5625 -8.238281 0.578125 -8.265625 0.609375 -8.265625 L 1.28125 -8.265625 C 1.65625 -8.242188 1.960938 -8.234375 2.203125 -8.234375 C 2.453125 -8.234375 2.769531 -8.242188 3.15625 -8.265625 L 3.796875 -8.265625 C 3.816406 -8.265625 3.828125 -8.238281 3.828125 -8.1875 C 3.828125 -8.132812 3.816406 -8.109375 3.796875 -8.109375 C 3.484375 -8.109375 3.25 -8.082031 3.09375 -8.03125 C 2.9375 -7.976562 2.832031 -7.882812 2.78125 -7.75 C 2.726562 -7.625 2.703125 -7.429688 2.703125 -7.171875 Z M 2.703125 -1.078125 "/></g></g></g><g fill="#000000" fill-opacity="1"><g transform="translate(138.193421, 304.622939)"><g><path d="M 5.484375 -8.421875 C 6.003906 -8.421875 6.457031 -8.378906 6.84375 -8.296875 C 7.226562 -8.222656 7.609375 -8.097656 7.984375 -7.921875 C 8.046875 -7.890625 8.082031 -7.859375 8.09375 -7.828125 C 8.101562 -7.796875 8.113281 -7.726562 8.125 -7.625 L 8.296875 -6.015625 C 8.296875 -5.984375 8.269531 -5.960938 8.21875 -5.953125 C 8.175781 -5.941406 8.148438 -5.957031 8.140625 -6 C 7.703125 -7.46875 6.789062 -8.203125 5.40625 -8.203125 C 4.6875 -8.203125 4.050781 -8.035156 3.5 -7.703125 C 2.957031 -7.378906 2.53125 -6.914062 2.21875 -6.3125 C 1.914062 -5.707031 1.765625 -5.003906 1.765625 -4.203125 C 1.765625 -3.429688 1.929688 -2.726562 2.265625 -2.09375 C 2.597656 -1.457031 3.046875 -0.957031 3.609375 -0.59375 C 4.171875 -0.226562 4.789062 -0.046875 5.46875 -0.046875 C 6.164062 -0.046875 6.734375 -0.21875 7.171875 -0.5625 C 7.617188 -0.914062 7.976562 -1.460938 8.25 -2.203125 C 8.257812 -2.222656 8.285156 -2.226562 8.328125 -2.21875 C 8.367188 -2.207031 8.390625 -2.195312 8.390625 -2.1875 L 8.265625 -0.703125 C 8.242188 -0.597656 8.222656 -0.53125 8.203125 -0.5 C 8.191406 -0.46875 8.15625 -0.429688 8.09375 -0.390625 C 7.644531 -0.179688 7.21875 -0.0351562 6.8125 0.046875 C 6.40625 0.128906 5.953125 0.171875 5.453125 0.171875 C 4.523438 0.171875 3.695312 -0.0078125 2.96875 -0.375 C 2.238281 -0.738281 1.671875 -1.25 1.265625 -1.90625 C 0.859375 -2.5625 0.65625 -3.316406 0.65625 -4.171875 C 0.65625 -4.992188 0.859375 -5.726562 1.265625 -6.375 C 1.679688 -7.019531 2.257812 -7.519531 3 -7.875 C 3.738281 -8.238281 4.566406 -8.421875 5.484375 -8.421875 Z M 5.484375 -8.421875 "/></g></g></g><g fill="#000000" fill-opacity="1"><g transform="translate(157.84687, 304.622939)"><g><path d="M 9.578125 -0.15625 C 9.609375 -0.15625 9.625 -0.128906 9.625 -0.078125 C 9.625 -0.0234375 9.609375 0 9.578125 0 C 9.296875 0 9.078125 -0.00390625 8.921875 -0.015625 L 7.984375 -0.03125 L 6.96875 -0.015625 C 6.8125 -0.00390625 6.601562 0 6.34375 0 C 6.3125 0 6.296875 -0.0234375 6.296875 -0.078125 C 6.296875 -0.128906 6.3125 -0.15625 6.34375 -0.15625 C 6.6875 -0.15625 6.929688 -0.175781 7.078125 -0.21875 C 7.234375 -0.269531 7.335938 -0.359375 7.390625 -0.484375 C 7.453125 -0.609375 7.484375 -0.804688 7.484375 -1.078125 L 7.484375 -4.15625 L 2.546875 -4.15625 L 2.546875 -1.078125 C 2.546875 -0.804688 2.570312 -0.609375 2.625 -0.484375 C 2.6875 -0.359375 2.796875 -0.269531 2.953125 -0.21875 C 3.109375 -0.175781 3.359375 -0.15625 3.703125 -0.15625 C 3.722656 -0.15625 3.734375 -0.128906 3.734375 -0.078125 C 3.734375 -0.0234375 3.722656 0 3.703125 0 C 3.421875 0 3.203125 -0.00390625 3.046875 -0.015625 L 2.046875 -0.03125 L 1.125 -0.015625 C 0.96875 -0.00390625 0.742188 0 0.453125 0 C 0.429688 0 0.421875 -0.0234375 0.421875 -0.078125 C 0.421875 -0.128906 0.429688 -0.15625 0.453125 -0.15625 C 0.785156 -0.15625 1.03125 -0.175781 1.1875 -0.21875 C 1.34375 -0.269531 1.445312 -0.359375 1.5 -0.484375 C 1.5625 -0.609375 1.59375 -0.804688 1.59375 -1.078125 L 1.59375 -7.203125 C 1.59375 -7.460938 1.5625 -7.65625 1.5 -7.78125 C 1.445312 -7.90625 1.34375 -7.988281 1.1875 -8.03125 C 1.03125 -8.082031 0.789062 -8.109375 0.46875 -8.109375 C 0.445312 -8.109375 0.4375 -8.132812 0.4375 -8.1875 C 0.4375 -8.238281 0.445312 -8.265625 0.46875 -8.265625 L 1.140625 -8.265625 C 1.503906 -8.242188 1.804688 -8.234375 2.046875 -8.234375 C 2.316406 -8.234375 2.65625 -8.242188 3.0625 -8.265625 L 3.703125 -8.265625 C 3.722656 -8.265625 3.734375 -8.238281 3.734375 -8.1875 C 3.734375 -8.132812 3.722656 -8.109375 3.703125 -8.109375 C 3.367188 -8.109375 3.117188 -8.082031 2.953125 -8.03125 C 2.796875 -7.976562 2.6875 -7.882812 2.625 -7.75 C 2.570312 -7.625 2.546875 -7.429688 2.546875 -7.171875 L 2.546875 -4.453125 L 7.484375 -4.453125 L 7.484375 -7.171875 C 7.484375 -7.429688 7.453125 -7.625 7.390625 -7.75 C 7.335938 -7.882812 7.234375 -7.976562 7.078125 -8.03125 C 6.921875 -8.082031 6.675781 -8.109375 6.34375 -8.109375 C 6.3125 -8.109375 6.296875 -8.132812 6.296875 -8.1875 C 6.296875 -8.238281 6.3125 -8.265625 6.34375 -8.265625 L 6.96875 -8.265625 C 7.351562 -8.242188 7.691406 -8.234375 7.984375 -8.234375 C 8.222656 -8.234375 8.535156 -8.242188 8.921875 -8.265625 L 9.578125 -8.265625 C 9.609375 -8.265625 9.625 -8.238281 9.625 -8.1875 C 9.625 -8.132812 9.609375 -8.109375 9.578125 -8.109375 C 9.242188 -8.109375 9 -8.082031 8.84375 -8.03125 C 8.6875 -7.988281 8.578125 -7.90625 8.515625 -7.78125 C 8.460938 -7.65625 8.4375 -7.460938 8.4375 -7.203125 L 8.4375 -1.078125 C 8.4375 -0.804688 8.460938 -0.609375 8.515625 -0.484375 C 8.578125 -0.359375 8.6875 -0.269531 8.84375 -0.21875 C 9 -0.175781 9.242188 -0.15625 9.578125 -0.15625 Z M 9.578125 -0.15625 "/></g></g></g><g fill="#000000" fill-opacity="1"><g transform="translate(178.492603, 304.622939)"><g><path d="M 9.296875 -0.15625 C 9.328125 -0.15625 9.34375 -0.128906 9.34375 -0.078125 C 9.34375 -0.0234375 9.328125 0 9.296875 0 C 9.128906 0 8.867188 -0.0078125 8.515625 -0.03125 C 8.160156 -0.0390625 7.898438 -0.046875 7.734375 -0.046875 C 7.523438 -0.046875 7.269531 -0.0390625 6.96875 -0.03125 C 6.6875 -0.0078125 6.46875 0 6.3125 0 C 6.28125 0 6.265625 -0.0234375 6.265625 -0.078125 C 6.265625 -0.128906 6.28125 -0.15625 6.3125 -0.15625 C 6.632812 -0.15625 6.863281 -0.179688 7 -0.234375 C 7.132812 -0.296875 7.203125 -0.40625 7.203125 -0.5625 C 7.203125 -0.6875 7.140625 -0.882812 7.015625 -1.15625 L 5.875 -3.53125 L 2.71875 -3.53125 L 1.9375 -1.71875 C 1.820312 -1.457031 1.765625 -1.21875 1.765625 -1 C 1.765625 -0.4375 2.191406 -0.15625 3.046875 -0.15625 C 3.085938 -0.15625 3.109375 -0.128906 3.109375 -0.078125 C 3.109375 -0.0234375 3.085938 0 3.046875 0 C 2.890625 0 2.660156 -0.0078125 2.359375 -0.03125 C 2.023438 -0.0390625 1.734375 -0.046875 1.484375 -0.046875 C 1.265625 -0.046875 0.992188 -0.0390625 0.671875 -0.03125 C 0.410156 -0.0078125 0.1875 0 0 0 C -0.0390625 0 -0.0625 -0.0234375 -0.0625 -0.078125 C -0.0625 -0.128906 -0.0390625 -0.15625 0 -0.15625 C 0.25 -0.15625 0.457031 -0.203125 0.625 -0.296875 C 0.800781 -0.390625 0.96875 -0.554688 1.125 -0.796875 C 1.28125 -1.035156 1.457031 -1.382812 1.65625 -1.84375 L 4.453125 -8.375 C 4.460938 -8.40625 4.492188 -8.421875 4.546875 -8.421875 C 4.597656 -8.421875 4.628906 -8.40625 4.640625 -8.375 L 7.796875 -1.8125 C 8.097656 -1.164062 8.351562 -0.726562 8.5625 -0.5 C 8.769531 -0.269531 9.015625 -0.15625 9.296875 -0.15625 Z M 2.828125 -3.8125 L 5.75 -3.8125 L 4.203125 -7.015625 Z M 2.828125 -3.8125 "/></g></g></g><g fill="#000000" fill-opacity="1"><g transform="translate(198.39743, 304.622939)"><g><path d="M 4.453125 -4.65625 C 5.160156 -4.59375 5.726562 -4.351562 6.15625 -3.9375 C 6.582031 -3.53125 6.796875 -3.03125 6.796875 -2.4375 C 6.796875 -1.96875 6.675781 -1.539062 6.4375 -1.15625 C 6.207031 -0.78125 5.882812 -0.484375 5.46875 -0.265625 C 5.0625 -0.0546875 4.601562 0.046875 4.09375 0.046875 C 3.8125 0.046875 3.5 0.0351562 3.15625 0.015625 C 3.039062 0.00390625 2.894531 -0.00390625 2.71875 -0.015625 C 2.550781 -0.0234375 2.363281 -0.03125 2.15625 -0.03125 L 1.25 -0.015625 C 1.082031 -0.00390625 0.851562 0 0.5625 0 C 0.550781 0 0.546875 -0.0234375 0.546875 -0.078125 C 0.546875 -0.128906 0.550781 -0.15625 0.5625 -0.15625 C 0.882812 -0.15625 1.125 -0.175781 1.28125 -0.21875 C 1.4375 -0.269531 1.539062 -0.359375 1.59375 -0.484375 C 1.65625 -0.609375 1.6875 -0.804688 1.6875 -1.078125 L 1.6875 -7.203125 C 1.6875 -7.460938 1.65625 -7.65625 1.59375 -7.78125 C 1.539062 -7.90625 1.441406 -7.988281 1.296875 -8.03125 C 1.148438 -8.082031 0.914062 -8.109375 0.59375 -8.109375 C 0.570312 -8.109375 0.5625 -8.132812 0.5625 -8.1875 C 0.5625 -8.238281 0.570312 -8.265625 0.59375 -8.265625 L 1.25 -8.265625 C 1.613281 -8.242188 1.914062 -8.234375 2.15625 -8.234375 C 2.3125 -8.234375 2.457031 -8.238281 2.59375 -8.25 C 2.738281 -8.257812 2.859375 -8.265625 2.953125 -8.265625 C 3.222656 -8.296875 3.484375 -8.3125 3.734375 -8.3125 C 4.492188 -8.3125 5.0625 -8.148438 5.4375 -7.828125 C 5.820312 -7.515625 6.015625 -7.09375 6.015625 -6.5625 C 6.015625 -6.132812 5.875 -5.753906 5.59375 -5.421875 C 5.320312 -5.097656 4.941406 -4.84375 4.453125 -4.65625 Z M 3.46875 -8.09375 C 3.25 -8.09375 3.082031 -8.070312 2.96875 -8.03125 C 2.863281 -8 2.78125 -7.914062 2.71875 -7.78125 C 2.664062 -7.644531 2.640625 -7.441406 2.640625 -7.171875 L 2.640625 -4.65625 L 3.25 -4.640625 C 3.851562 -4.640625 4.300781 -4.804688 4.59375 -5.140625 C 4.894531 -5.484375 5.046875 -5.925781 5.046875 -6.46875 C 5.046875 -6.96875 4.914062 -7.363281 4.65625 -7.65625 C 4.40625 -7.945312 4.007812 -8.09375 3.46875 -8.09375 Z M 3.890625 -0.203125 C 4.523438 -0.203125 4.992188 -0.363281 5.296875 -0.6875 C 5.609375 -1.019531 5.765625 -1.492188 5.765625 -2.109375 C 5.765625 -2.773438 5.570312 -3.3125 5.1875 -3.71875 C 4.8125 -4.132812 4.28125 -4.347656 3.59375 -4.359375 C 3.351562 -4.367188 3.035156 -4.359375 2.640625 -4.328125 L 2.640625 -1.078125 C 2.640625 -0.847656 2.671875 -0.671875 2.734375 -0.546875 C 2.804688 -0.429688 2.929688 -0.34375 3.109375 -0.28125 C 3.285156 -0.226562 3.546875 -0.203125 3.890625 -0.203125 Z M 3.890625 -0.203125 "/></g></g></g><g fill="#000000" fill-opacity="1"><g transform="translate(216.463233, 304.622939)"><g><path d="M 4.453125 -4.65625 C 5.160156 -4.59375 5.726562 -4.351562 6.15625 -3.9375 C 6.582031 -3.53125 6.796875 -3.03125 6.796875 -2.4375 C 6.796875 -1.96875 6.675781 -1.539062 6.4375 -1.15625 C 6.207031 -0.78125 5.882812 -0.484375 5.46875 -0.265625 C 5.0625 -0.0546875 4.601562 0.046875 4.09375 0.046875 C 3.8125 0.046875 3.5 0.0351562 3.15625 0.015625 C 3.039062 0.00390625 2.894531 -0.00390625 2.71875 -0.015625 C 2.550781 -0.0234375 2.363281 -0.03125 2.15625 -0.03125 L 1.25 -0.015625 C 1.082031 -0.00390625 0.851562 0 0.5625 0 C 0.550781 0 0.546875 -0.0234375 0.546875 -0.078125 C 0.546875 -0.128906 0.550781 -0.15625 0.5625 -0.15625 C 0.882812 -0.15625 1.125 -0.175781 1.28125 -0.21875 C 1.4375 -0.269531 1.539062 -0.359375 1.59375 -0.484375 C 1.65625 -0.609375 1.6875 -0.804688 1.6875 -1.078125 L 1.6875 -7.203125 C 1.6875 -7.460938 1.65625 -7.65625 1.59375 -7.78125 C 1.539062 -7.90625 1.441406 -7.988281 1.296875 -8.03125 C 1.148438 -8.082031 0.914062 -8.109375 0.59375 -8.109375 C 0.570312 -8.109375 0.5625 -8.132812 0.5625 -8.1875 C 0.5625 -8.238281 0.570312 -8.265625 0.59375 -8.265625 L 1.25 -8.265625 C 1.613281 -8.242188 1.914062 -8.234375 2.15625 -8.234375 C 2.3125 -8.234375 2.457031 -8.238281 2.59375 -8.25 C 2.738281 -8.257812 2.859375 -8.265625 2.953125 -8.265625 C 3.222656 -8.296875 3.484375 -8.3125 3.734375 -8.3125 C 4.492188 -8.3125 5.0625 -8.148438 5.4375 -7.828125 C 5.820312 -7.515625 6.015625 -7.09375 6.015625 -6.5625 C 6.015625 -6.132812 5.875 -5.753906 5.59375 -5.421875 C 5.320312 -5.097656 4.941406 -4.84375 4.453125 -4.65625 Z M 3.46875 -8.09375 C 3.25 -8.09375 3.082031 -8.070312 2.96875 -8.03125 C 2.863281 -8 2.78125 -7.914062 2.71875 -7.78125 C 2.664062 -7.644531 2.640625 -7.441406 2.640625 -7.171875 L 2.640625 -4.65625 L 3.25 -4.640625 C 3.851562 -4.640625 4.300781 -4.804688 4.59375 -5.140625 C 4.894531 -5.484375 5.046875 -5.925781 5.046875 -6.46875 C 5.046875 -6.96875 4.914062 -7.363281 4.65625 -7.65625 C 4.40625 -7.945312 4.007812 -8.09375 3.46875 -8.09375 Z M 3.890625 -0.203125 C 4.523438 -0.203125 4.992188 -0.363281 5.296875 -0.6875 C 5.609375 -1.019531 5.765625 -1.492188 5.765625 -2.109375 C 5.765625 -2.773438 5.570312 -3.3125 5.1875 -3.71875 C 4.8125 -4.132812 4.28125 -4.347656 3.59375 -4.359375 C 3.351562 -4.367188 3.035156 -4.359375 2.640625 -4.328125 L 2.640625 -1.078125 C 2.640625 -0.847656 2.671875 -0.671875 2.734375 -0.546875 C 2.804688 -0.429688 2.929688 -0.34375 3.109375 -0.28125 C 3.285156 -0.226562 3.546875 -0.203125 3.890625 -0.203125 Z M 3.890625 -0.203125 "/></g></g></g><g fill="#000000" fill-opacity="1"><g transform="translate(234.529035, 304.622939)"><g><path d="M 9.296875 -0.15625 C 9.328125 -0.15625 9.34375 -0.128906 9.34375 -0.078125 C 9.34375 -0.0234375 9.328125 0 9.296875 0 C 9.128906 0 8.867188 -0.0078125 8.515625 -0.03125 C 8.160156 -0.0390625 7.898438 -0.046875 7.734375 -0.046875 C 7.523438 -0.046875 7.269531 -0.0390625 6.96875 -0.03125 C 6.6875 -0.0078125 6.46875 0 6.3125 0 C 6.28125 0 6.265625 -0.0234375 6.265625 -0.078125 C 6.265625 -0.128906 6.28125 -0.15625 6.3125 -0.15625 C 6.632812 -0.15625 6.863281 -0.179688 7 -0.234375 C 7.132812 -0.296875 7.203125 -0.40625 7.203125 -0.5625 C 7.203125 -0.6875 7.140625 -0.882812 7.015625 -1.15625 L 5.875 -3.53125 L 2.71875 -3.53125 L 1.9375 -1.71875 C 1.820312 -1.457031 1.765625 -1.21875 1.765625 -1 C 1.765625 -0.4375 2.191406 -0.15625 3.046875 -0.15625 C 3.085938 -0.15625 3.109375 -0.128906 3.109375 -0.078125 C 3.109375 -0.0234375 3.085938 0 3.046875 0 C 2.890625 0 2.660156 -0.0078125 2.359375 -0.03125 C 2.023438 -0.0390625 1.734375 -0.046875 1.484375 -0.046875 C 1.265625 -0.046875 0.992188 -0.0390625 0.671875 -0.03125 C 0.410156 -0.0078125 0.1875 0 0 0 C -0.0390625 0 -0.0625 -0.0234375 -0.0625 -0.078125 C -0.0625 -0.128906 -0.0390625 -0.15625 0 -0.15625 C 0.25 -0.15625 0.457031 -0.203125 0.625 -0.296875 C 0.800781 -0.390625 0.96875 -0.554688 1.125 -0.796875 C 1.28125 -1.035156 1.457031 -1.382812 1.65625 -1.84375 L 4.453125 -8.375 C 4.460938 -8.40625 4.492188 -8.421875 4.546875 -8.421875 C 4.597656 -8.421875 4.628906 -8.40625 4.640625 -8.375 L 7.796875 -1.8125 C 8.097656 -1.164062 8.351562 -0.726562 8.5625 -0.5 C 8.769531 -0.269531 9.015625 -0.15625 9.296875 -0.15625 Z M 2.828125 -3.8125 L 5.75 -3.8125 L 4.203125 -7.015625 Z M 2.828125 -3.8125 "/></g></g></g><g fill="#000000" fill-opacity="1"><g transform="translate(254.433869, 304.622939)"><g><path d="M 2.5625 -8.015625 C 2.019531 -8.015625 1.597656 -7.867188 1.296875 -7.578125 C 1.003906 -7.285156 0.789062 -6.800781 0.65625 -6.125 C 0.65625 -6.101562 0.628906 -6.09375 0.578125 -6.09375 C 0.523438 -6.09375 0.5 -6.101562 0.5 -6.125 C 0.539062 -6.375 0.582031 -6.769531 0.625 -7.3125 C 0.664062 -7.863281 0.6875 -8.28125 0.6875 -8.5625 C 0.6875 -8.601562 0.710938 -8.625 0.765625 -8.625 C 0.816406 -8.625 0.84375 -8.601562 0.84375 -8.5625 C 0.84375 -8.363281 1.082031 -8.265625 1.5625 -8.265625 C 2.320312 -8.242188 3.207031 -8.234375 4.21875 -8.234375 C 4.738281 -8.234375 5.289062 -8.242188 5.875 -8.265625 L 6.78125 -8.265625 C 7.09375 -8.265625 7.328125 -8.285156 7.484375 -8.328125 C 7.640625 -8.378906 7.738281 -8.472656 7.78125 -8.609375 C 7.789062 -8.640625 7.816406 -8.65625 7.859375 -8.65625 C 7.898438 -8.65625 7.921875 -8.640625 7.921875 -8.609375 C 7.898438 -8.347656 7.875 -7.953125 7.84375 -7.421875 C 7.820312 -6.890625 7.8125 -6.457031 7.8125 -6.125 C 7.8125 -6.101562 7.785156 -6.09375 7.734375 -6.09375 C 7.679688 -6.09375 7.65625 -6.101562 7.65625 -6.125 C 7.613281 -6.800781 7.453125 -7.285156 7.171875 -7.578125 C 6.898438 -7.867188 6.472656 -8.015625 5.890625 -8.015625 C 5.535156 -8.015625 5.28125 -8 5.125 -7.96875 C 4.96875 -7.9375 4.859375 -7.859375 4.796875 -7.734375 C 4.742188 -7.617188 4.71875 -7.429688 4.71875 -7.171875 L 4.71875 -1.078125 C 4.71875 -0.796875 4.742188 -0.59375 4.796875 -0.46875 C 4.859375 -0.351562 4.972656 -0.269531 5.140625 -0.21875 C 5.316406 -0.175781 5.597656 -0.15625 5.984375 -0.15625 C 6.003906 -0.15625 6.015625 -0.128906 6.015625 -0.078125 C 6.015625 -0.0234375 6.003906 0 5.984375 0 C 5.679688 0 5.441406 -0.00390625 5.265625 -0.015625 L 4.21875 -0.03125 L 3.21875 -0.015625 C 3.039062 -0.00390625 2.789062 0 2.46875 0 C 2.457031 0 2.453125 -0.0234375 2.453125 -0.078125 C 2.453125 -0.128906 2.457031 -0.15625 2.46875 -0.15625 C 2.84375 -0.15625 3.117188 -0.175781 3.296875 -0.21875 C 3.472656 -0.269531 3.59375 -0.359375 3.65625 -0.484375 C 3.71875 -0.609375 3.75 -0.804688 3.75 -1.078125 L 3.75 -7.203125 C 3.75 -7.453125 3.71875 -7.632812 3.65625 -7.75 C 3.601562 -7.863281 3.5 -7.9375 3.34375 -7.96875 C 3.1875 -8 2.925781 -8.015625 2.5625 -8.015625 Z M 2.5625 -8.015625 "/></g></g></g><path stroke-linecap="butt" transform="matrix(0.748052, 0, 0, 0.75, 280.49568, 283.622941)" fill="none" stroke-linejoin="miter" d="M 0.000552461 0.497538 L 54.141183 0.497538 " stroke="#000000" stroke-width="1" stroke-opacity="1" stroke-miterlimit="4"/><path stroke-linecap="butt" transform="matrix(0.748052, 0, 0, 0.75, 71.573899, 284.372941)" fill="none" stroke-linejoin="miter" d="M 0.000427444 0.497538 L 54.14628 0.497538 " stroke="#000000" stroke-width="1" stroke-opacity="1" stroke-miterlimit="4"/><g fill="#231f20" fill-opacity="1"><g transform="translate(59.332032, 234.749985)"><g><path d="M 88.28125 -20.183594 C 91.675781 -9.621094 91.863281 -1.699219 90.542969 -1.699219 L 90.542969 0 L 112.613281 0 L 112.613281 -1.699219 C 109.785156 -1.699219 105.066406 -13.203125 100.164062 -27.351562 L 64.136719 -132.421875 L 49.800781 -132.421875 L 53.382812 -122.046875 L 19.804688 -23.769531 C 13.957031 -6.789062 8.488281 -1.699219 5.660156 -1.699219 L 5.660156 0 L 21.691406 0 L 21.691406 -1.699219 C 16.789062 -1.699219 16.410156 -8.867188 21.503906 -23.203125 L 30.746094 -50.742188 C 33.386719 -58.097656 42.820312 -59.796875 49.609375 -59.230469 C 68.097656 -57.34375 81.113281 -41.308594 86.769531 -24.710938 Z M 54.324219 -119.40625 L 82.054688 -38.667969 C 74.886719 -50.175781 63.757812 -59.417969 49.609375 -60.738281 C 44.140625 -61.304688 37.160156 -60.363281 32.820312 -56.402344 Z M 54.324219 -119.40625 "/></g></g></g><g fill="#231f20" fill-opacity="1"><g transform="translate(177.599847, 234.749985)"><g><path d="M 8.109375 -49.234375 C 25.652344 16.410156 120.347656 16.035156 132.421875 -45.273438 L 130.910156 -45.648438 C 119.78125 10.5625 38.480469 10.375 21.503906 -52.816406 C 13.582031 -82.242188 23.390625 -121.101562 55.835938 -129.777344 C 83 -136.945312 106.011719 -116.761719 117.707031 -93.375 L 119.40625 -93.375 L 123.742188 -109.972656 C 107.519531 -129.023438 81.300781 -138.269531 55.457031 -131.289062 C 19.617188 -121.667969 -1.507812 -85.074219 8.109375 -49.234375 Z M 8.109375 -49.234375 "/></g></g></g></svg>